<svg height="256" viewBox="0 0 256 256" width="256" xmlns="http://www.w3.org/2000/svg" xmlns:xlink="http://www.w3.org/1999/xlink"><linearGradient id="a" x1="50%" x2="50%" y1="0%" y2="100%"><stop offset="0" stop-color="#444"/><stop offset="1" stop-color="#232b2e"/></linearGradient><mask id="b" fill="#fff"><path d="m0 .035h36.449v52.065h-36.449z" fill="#fff" fill-rule="evenodd"/></mask><g fill="none" fill-rule="evenodd"><path d="m0 0h256v256h-256z" fill="url(#a)"/><g transform="translate(42 101)"><path d="m24.641 40.69176c1.4408571-2.0768 2.1612857-4.7613 2.1612857-8.0535 0-4.6079-1.1538571-7.906-3.4674286-9.8884-1.4174285-1.1977-3.0632857-1.7995-4.9375714-1.7995-2.8641428 0-4.961 1.0915-6.3022857 3.2686-1.3354286 2.1771-2.0031429 4.8793-2.0031429 8.1066 0 3.481.6794286 6.2658 2.0382858 8.3485 1.3647142 2.0886 3.4264285 3.127 6.1968571 3.127s4.8731429-1.0325 6.314-3.1093m-2.4014286-26.845c1.763 1.003 3.1921429 2.3895 4.2874286 4.1654v-17.9773h9.922v50.8875h-9.5061429v-5.2156c-1.3998571 2.2361-2.9871428 3.8586-4.7735714 4.8734s-4.0004286 1.5222-6.6595714 1.5222c-4.3694286 0-8.0477143-1.7818-11.02900001-5.3454-2.98714286-3.5577-4.48071429-8.1302-4.48071429-13.7057 0-6.431 1.47014286-11.4873 4.41042857-15.1748 2.94028572-3.6875 6.87042853-5.5342 11.79042853-5.5342 2.2608572 0 4.2757143.5015 6.0387143 1.5045" fill="#ff7f00" mask="url(#b)"/><path d="m46 51h10v-37.4841197h-10zm0-41.9561565h10v-9.0438435h-10zm40.2206495 24.3390026c-.6178185.3917495-1.2531224.7122719-1.8825979.9556314-.6411324.2433596-1.5095753.4689123-2.6169858.6766583l-2.214821.4214275c-2.080766.3680071-3.572856.8191126-4.4762698 1.3533165-1.5328892.9081466-2.2964196 2.3089479-2.2964196 4.2083395 0 1.6916457.4662781 2.914379 1.4046628 3.6682001.9325562.753821 2.069109 1.1336993 3.415487 1.1336993 2.1273939 0 4.0857619-.6291735 5.8751041-1.8815848 1.7951707-1.2524113 2.71607-3.5316813 2.7918402-6.849681zm-5.9508743-4.6238314c1.8126561-.2314884 3.1065778-.5223327 3.8875937-.872533 1.3988343-.5994955 2.0982514-1.5432557 2.0982514-2.8134738 0-1.5551269-.5420483-2.6294703-1.6144879-3.2170946-1.0666112-.5935598-2.6461282-.8903398-4.7210658-.8903398-2.3313905 0-3.9866778.5816887-4.9542048 1.7391305-.6935887.8606618-1.1482098 2.0181035-1.3813489 3.4782608h-9.3896753c.2039967-3.3120641 1.1190675-6.0365039 2.7393839-8.1733195 2.5878434-3.3358065 7.0233139-5.0096453 13.3122398-5.0096453 4.0915903 0 7.7285595.8250482 10.9109076 2.4692091 3.1765195 1.6500964 4.7618651 4.7544146 4.7618651 9.3248256v17.3853688c0 1.2108621.0233139 2.6710194.0699417 4.3864075.0641132 1.2939605.2622814 2.1783647.5770191 2.6413414.3205662.4629767.7985013.8487906 1.4338052 1.1455706v1.4601572h-10.5845129c-.2972523-.7597566-.501249-1.4838996-.61199-2.1546223-.1165695-.6707227-.2098252-1.4364149-.2739384-2.2970767-1.3522065 1.4838997-2.9084097 2.7481822-4.674438 3.7928476-2.1040799 1.2286689-4.4879267 1.8459712-7.1457119 1.8459712-3.3863447 0-6.1840133-.9793738-8.3930058-2.9381214-2.214821-1.9646832-3.316403-4.7366078-3.316403-8.3335806 0-4.6594451 1.7776853-8.0308651 5.3330558-10.1201959 1.9467111-1.1336994 4.8143214-1.9468764 8.5970025-2.4335955z" fill="#ff7f00"/><g fill="#1bbd00"><path d="m121.983 13h10.034l5.767 27.368 5.903-27.368h10.313l-10.971 38h-10.176l-5.939-27.683-6.01 27.683h-10.277l-10.627-38h10.627l5.903 27.261z"/><path d="m160 51h9.994097v-37.4841197h-9.994097zm.005903-41.9561565h9.994097v-9.0438435h-9.994097z"/></g></g></g></svg>